<?xml version="1.0" encoding="UTF-8" standalone="no"?>
<!-- Created with Inkscape (http://www.inkscape.org/) -->

<svg
   xmlns:dc="http://purl.org/dc/elements/1.1/"
   xmlns:cc="http://creativecommons.org/ns#"
   xmlns:rdf="http://www.w3.org/1999/02/22-rdf-syntax-ns#"
   xmlns:svg="http://www.w3.org/2000/svg"
   xmlns="http://www.w3.org/2000/svg"
   xmlns:sodipodi="http://sodipodi.sourceforge.net/DTD/sodipodi-0.dtd"
   xmlns:inkscape="http://www.inkscape.org/namespaces/inkscape"
   width="93"
   height="48"
   viewBox="0 0 93 48"
   id="svg2"
   version="1.1"
   inkscape:version="0.91 r13725"
   sodipodi:docname="logo_new.svg">
  <defs
     id="defs4" />
  <sodipodi:namedview
     id="base"
     pagecolor="#ffffff"
     bordercolor="#666666"
     borderopacity="1.0"
     inkscape:pageopacity="0.0"
     inkscape:pageshadow="2"
     inkscape:zoom="11.313709"
     inkscape:cx="63.178528"
     inkscape:cy="19.106763"
     inkscape:document-units="px"
     inkscape:current-layer="layer1"
     showgrid="false"
     units="px"
     showguides="true"
     inkscape:guide-bbox="true"
     inkscape:window-width="2048"
     inkscape:window-height="1099"
     inkscape:window-x="-8"
     inkscape:window-y="-8"
     inkscape:window-maximized="1">
    <sodipodi:guide
       position="11.402097,11.799844"
       orientation="0,1"
       id="guide8150" />
    <sodipodi:guide
       position="27.4375,28.875"
       orientation="0,1"
       id="guide8264" />
  </sodipodi:namedview>
  <metadata
     id="metadata7">
    <rdf:RDF>
      <cc:Work
         rdf:about="">
        <dc:format>image/svg+xml</dc:format>
        <dc:type
           rdf:resource="http://purl.org/dc/dcmitype/StillImage" />
        <dc:title></dc:title>
      </cc:Work>
    </rdf:RDF>
  </metadata>
  <g
     inkscape:label="Layer 1"
     inkscape:groupmode="layer"
     id="layer1"
     transform="translate(0,-1004.3622)">
    <rect
       style="opacity:1;fill:#000000;fill-opacity:1;stroke:none;stroke-width:0.40000001;stroke-linecap:butt;stroke-linejoin:miter;stroke-miterlimit:4;stroke-dasharray:none;stroke-dashoffset:0;stroke-opacity:1"
       id="rect8070"
       width="3"
       height="30"
       x="6.7314286"
       y="1010.5712" />
    <g
       id="g8145"
       transform="translate(-6.6079258,8.1187838)">
      <g
         id="g8152">
        <rect
           style="opacity:1;fill:#000000;fill-opacity:1;stroke:none;stroke-width:0.40000001;stroke-linecap:butt;stroke-linejoin:miter;stroke-miterlimit:4;stroke-dasharray:none;stroke-dashoffset:0;stroke-opacity:1"
           id="rect8070-4"
           width="3.015625"
           height="8.712738"
           x="21.183512"
           y="1023.7654" />
        <path
           inkscape:connector-curvature="0"
           style="opacity:1;fill:#000000;fill-opacity:1;stroke:none;stroke-width:0.40000001;stroke-linecap:butt;stroke-linejoin:miter;stroke-miterlimit:4;stroke-dasharray:none;stroke-dashoffset:0;stroke-opacity:1"
           d="m 29.660156,1015.3271 a 8.4844046,8.4844046 0 0 0 -8.484375,8.4843 8.4844046,8.4844046 0 0 0 0.0039,0.084 l 3.015624,0 a 5.4342256,5.4342256 0 0 1 -0.0039,-0.1191 5.4342256,5.4342256 0 0 1 5.433594,-5.4336 5.4342256,5.4342256 0 0 1 5.433594,5.4336 5.4342256,5.4342256 0 0 1 -0.0059,0.1191 l 3.087891,0 a 8.4844046,8.4844046 0 0 0 0.0039,-0.084 8.4844046,8.4844046 0 0 0 -8.484375,-8.4843 z"
           id="path8089" />
        <rect
           style="opacity:1;fill:#000000;fill-opacity:1;stroke:none;stroke-width:0.40000001;stroke-linecap:butt;stroke-linejoin:miter;stroke-miterlimit:4;stroke-dasharray:none;stroke-dashoffset:0;stroke-opacity:1"
           id="rect8070-4-5"
           width="3.0999999"
           height="8.7846603"
           x="35.048939"
           y="1023.6906" />
        <path
           inkscape:connector-curvature="0"
           style="opacity:1;fill:#000000;fill-opacity:1;stroke:none;stroke-width:0.40000001;stroke-linecap:butt;stroke-linejoin:miter;stroke-miterlimit:4;stroke-dasharray:none;stroke-dashoffset:0;stroke-opacity:1"
           d="m 43.798849,1023.8931 a 8.4844046,8.4844046 0 0 0 8.484399,8.4844 8.4844046,8.4844046 0 0 0 0.084,0 l 0,-3.0157 a 5.4342256,5.4342256 0 0 1 -0.1191,0 5.4342256,5.4342256 0 0 1 -5.4337,-5.4336 5.4342256,5.4342256 0 0 1 5.4337,-5.4336 5.4342256,5.4342256 0 0 1 0.1191,0.01 l 0,-3.0879 a 8.4844046,8.4844046 0 0 0 -0.084,0 8.4844046,8.4844046 0 0 0 -8.4844,8.4844 z"
           id="path8089-1" />
      </g>
    </g>
    <rect
       style="opacity:1;fill:#000000;fill-opacity:1;stroke:none;stroke-width:0.40000001;stroke-linecap:butt;stroke-linejoin:miter;stroke-miterlimit:4;stroke-dasharray:none;stroke-dashoffset:0;stroke-opacity:1"
       id="rect8070-0"
       width="3"
       height="30"
       x="48.922722"
       y="1010.521" />
    <path
       style="opacity:1;fill:#000000;fill-opacity:1;stroke:none;stroke-width:0.40000001;stroke-linecap:butt;stroke-linejoin:miter;stroke-miterlimit:4;stroke-dasharray:none;stroke-dashoffset:0;stroke-opacity:1"
       d="M 69.695312 19.125 L 58.451172 39.433594 L 61.074219 40.886719 L 73.125 19.125 L 69.695312 19.125 z "
       transform="translate(0,1004.3622)"
       id="rect8070-0-6" />
    <path
       style="opacity:1;fill:#000000;fill-opacity:1;stroke:none;stroke-width:0.40000001;stroke-linecap:butt;stroke-linejoin:miter;stroke-miterlimit:4;stroke-dasharray:none;stroke-dashoffset:0;stroke-opacity:1"
       d="M 57.390625 19.125 L 62.396484 28.128906 L 64.109375 25.037109 L 60.822266 19.125 L 57.390625 19.125 z "
       transform="translate(0,1004.3622)"
       id="rect8070-0-2" />
  </g>
</svg>
